<svg width="15" height="16" viewBox="0 0 15 16" fill="none" xmlns="http://www.w3.org/2000/svg">
<path d="M13.6133 6.87764L14.3551 7.62086C14.6691 7.93555 14.6691 8.44443 14.3551 8.75578L7.86329 15.264C7.54923 15.5787 7.04138 15.5787 6.73066 15.264L0.235548 8.75578C-0.078516 8.44108 -0.078516 7.93221 0.235548 7.62086L0.977273 6.87764C1.29468 6.55959 1.81255 6.56629 2.12327 6.89103L5.95886 10.9252V1.30348C5.95886 0.858219 6.31636 0.5 6.76073 0.5H7.82988C8.27425 0.5 8.63174 0.858219 8.63174 1.30348V10.9252L12.4673 6.89103C12.7781 6.56294 13.2959 6.55624 13.6133 6.87764Z" fill="white"/>
</svg>
