<svg width="32" height="24" viewBox="0 0 32 24" fill="none" xmlns="http://www.w3.org/2000/svg">
<path fill-rule="evenodd" clip-rule="evenodd" d="M3.0736 2.34262H28.9266C29.4524 2.34262 29.8826 2.77339 29.8826 3.29914V20.7007C29.8826 21.2266 29.4524 21.6567 28.9266 21.6567H3.0736C2.54786 21.6567 2.11797 21.2271 2.11797 20.7007V3.29914C2.11797 2.77286 2.54786 2.34262 3.0736 2.34262ZM7.45257 15.7127H8.84572V5.32782H7.45257V15.7127ZM10.0741 15.7127H12.1478V5.32782H10.0741V15.7127ZM15.3175 15.7127H16.717V5.32782H15.3175V15.7127ZM17.9393 15.7127H19.5931V5.32782H17.9393V15.7127ZM20.5611 15.7127H21.9606V5.32782H20.5611V15.7127ZM23.0027 15.7127H24.5239V5.32782H23.0027V15.7127ZM25.5807 18.6677H26.7901V5.32791H25.5807V18.6677ZM13.4308 15.7127H14.4266V5.32782H13.4308V15.7127ZM7.45612 18.6677H8.84972V17.1801H7.45612V18.6677ZM10.0678 18.6677H11.4616V17.1801H10.0678V18.6677ZM12.6791 18.6677H14.0732V17.1801H12.6791V18.6677ZM15.291 18.6677H16.6855V17.1801H15.291V18.6677ZM17.9032 18.6677H19.2972V17.1801H17.9032V18.6677ZM20.515 18.6677H21.9089V17.1801H20.515V18.6677ZM23.1266 18.6677H24.5205V17.1801H23.1266V18.6677ZM5.18652 18.6677H6.39611V5.32791H5.18652V18.6677ZM29.0557 23.7768H2.94441C1.32532 23.7768 0 22.4511 0 20.8329V3.16746C0 1.54864 1.32558 0.223145 2.94441 0.223145H29.0557C30.6749 0.223145 32 1.5482 32 3.16746V20.8329C32 22.4522 30.6751 23.7768 29.0557 23.7768Z" fill="#727272"/>
</svg>
