<svg width="18" height="16" viewBox="0 0 18 16" fill="none" xmlns="http://www.w3.org/2000/svg">
<path d="M16.5 0.800049C16.9125 0.800049 17.2656 0.946924 17.5594 1.24067C17.8531 1.53442 18 1.88755 18 2.30005V13.7C18 14.1125 17.8531 14.4657 17.5594 14.7594C17.2656 15.0532 16.9125 15.2 16.5 15.2H1.5C1.0875 15.2 0.734375 15.0532 0.440625 14.7594C0.146875 14.4657 0 14.1125 0 13.7V2.30005C0 1.88755 0.146875 1.53442 0.440625 1.24067C0.734375 0.946924 1.0875 0.800049 1.5 0.800049H16.5ZM1.5 2.00005C1.41875 2.00005 1.34844 2.02974 1.28906 2.08911C1.22969 2.14849 1.2 2.2188 1.2 2.30005V4.40005H16.8V2.30005C16.8 2.2188 16.7703 2.14849 16.7109 2.08911C16.6516 2.02974 16.5813 2.00005 16.5 2.00005H1.5ZM16.5 14C16.5813 14 16.6516 13.9704 16.7109 13.911C16.7703 13.8516 16.8 13.7813 16.8 13.7V8.00005H1.2V13.7C1.2 13.7813 1.22969 13.8516 1.28906 13.911C1.34844 13.9704 1.41875 14 1.5 14H16.5ZM2.4 12.8V11.6H4.8V12.8H2.4ZM6 12.8V11.6H9.6V12.8H6Z" fill="#639BD0"/>
</svg>
