<svg width="88" height="32" viewBox="0 0 88 32" fill="none" xmlns="http://www.w3.org/2000/svg">
<path d="M35.6101 29.2628V11.724C35.6101 10.1746 36.2275 8.68854 37.3264 7.59289C38.4253 6.49724 39.9158 5.88171 41.4699 5.88171L46.6632 5.88894C48.2133 5.89205 49.6988 6.50821 50.7937 7.6022C51.8885 8.69618 52.5033 10.1786 52.5031 11.724V15.4564C52.5031 17.006 51.8857 18.4921 50.7868 19.5879C49.6879 20.6837 48.1975 21.2994 46.6433 21.2996H39.3029" stroke="#939598" stroke-width="2.88743" stroke-linecap="round" stroke-linejoin="round"/>
<path d="M53.9546 5.88086H56.2076C56.8455 5.88086 57.4572 6.1335 57.9083 6.58321C58.3593 7.03291 58.6127 7.64284 58.6127 8.27882V21.3791" stroke="#939598" stroke-width="2.88743" stroke-linecap="round" stroke-linejoin="round"/>
<path d="M58.1293 3.85122L57.1078 2.83191C57.0476 2.77187 56.9997 2.70059 56.9671 2.62212C56.9345 2.54366 56.9177 2.45955 56.9177 2.37462C56.9177 2.28968 56.9345 2.20558 56.9671 2.12711C56.9997 2.04865 57.0476 1.97736 57.1078 1.91732L58.1293 0.898912C58.2512 0.777455 58.4165 0.709229 58.5888 0.709229C58.7612 0.709229 58.9265 0.777455 59.0484 0.898912L60.069 1.91732C60.1292 1.97736 60.177 2.04865 60.2096 2.12711C60.2423 2.20558 60.2591 2.28968 60.2591 2.37462C60.2591 2.45955 60.2423 2.54366 60.2096 2.62212C60.177 2.70059 60.1292 2.77187 60.069 2.83191L59.0439 3.85122C58.9836 3.91134 58.912 3.95902 58.8332 3.99155C58.7545 4.02409 58.67 4.04083 58.5848 4.04083C58.4995 4.04083 58.4151 4.02409 58.3363 3.99155C58.2575 3.95902 58.1859 3.91134 58.1257 3.85122" fill="#727272"/>
<path d="M62.9375 5.86914H65.1715C66.3206 5.86866 67.4229 6.32333 68.2359 7.13313L73.4618 12.3435C73.6226 12.5041 73.8137 12.6315 74.024 12.7184C74.2343 12.8053 74.4598 12.8501 74.6874 12.8501C74.9151 12.8501 75.1405 12.8053 75.3508 12.7184C75.5611 12.6315 75.7522 12.5041 75.9131 12.3435L81.12 7.15299C81.5223 6.75197 81.9999 6.43393 82.5255 6.21704C83.0512 6.00016 83.6146 5.88869 84.1834 5.889H86" stroke="#939598" stroke-width="2.88743" stroke-linecap="round" stroke-linejoin="round"/>
<path d="M62.9375 21.2645H65.1715C66.3206 21.2648 67.4229 20.8102 68.2359 20.0005L73.4618 14.7902C73.7869 14.4662 74.2278 14.2843 74.6874 14.2843C75.1471 14.2843 75.5879 14.4662 75.9131 14.7902L81.12 19.9815C81.9326 20.7912 83.0346 21.2458 84.1834 21.2455H86" stroke="#939598" stroke-width="2.88743" stroke-linecap="round" stroke-linejoin="round"/>
<path d="M22.2903 24.5923C21.7391 24.5943 21.193 24.4874 20.6835 24.2777C20.174 24.0681 19.7113 23.7598 19.3219 23.3708L15.0342 19.0931C14.8825 18.9485 14.6808 18.8678 14.4709 18.8678C14.2611 18.8678 14.0593 18.9485 13.9077 19.0931L9.60543 23.3825C9.21636 23.7721 8.75371 24.081 8.24421 24.2913C7.73472 24.5016 7.18847 24.6091 6.63705 24.6077H5.79761L11.2309 30.0248C12.0458 30.8355 13.1499 31.2908 14.3011 31.2908C15.4523 31.2908 16.5565 30.8355 17.3714 30.0248L22.8155 24.5959L22.2903 24.5923Z" fill="#727272"/>
<path d="M6.63795 9.47505C7.18939 9.47358 7.73564 9.5811 8.24515 9.79139C8.75465 10.0017 9.21729 10.3106 9.60634 10.7002L13.9086 14.9905C14.0581 15.1392 14.2607 15.2226 14.4718 15.2226C14.683 15.2226 14.8855 15.1392 15.0351 14.9905L19.3219 10.7165C19.7107 10.3263 20.1732 10.0171 20.6828 9.8066C21.1924 9.59613 21.7388 9.48865 22.2903 9.4904H22.8065L17.3623 4.06247C16.9592 3.66039 16.4806 3.34143 15.9538 3.12381C15.427 2.9062 14.8623 2.79419 14.2921 2.79419C13.7219 2.79419 13.1572 2.9062 12.6304 3.12381C12.1036 3.34143 11.625 3.66039 11.2218 4.06247L5.79761 9.47505H6.63795Z" fill="#727272"/>
<path d="M27.3097 13.9811L24.0199 10.7011C23.9457 10.7313 23.8664 10.7473 23.7862 10.748H22.2903C21.5118 10.75 20.7656 11.0582 20.2139 11.6057L15.927 15.8771C15.5409 16.2613 15.0177 16.4771 14.4722 16.4771C13.9268 16.4771 13.4036 16.2613 13.0175 15.8771L8.71433 11.5895C8.16273 11.0416 7.41649 10.7331 6.63791 10.7309H4.80146C4.72578 10.7292 4.65098 10.7142 4.58051 10.6866L1.26983 13.9811C0.456678 14.7936 0 15.8945 0 17.0422C0 18.19 0.456678 19.2909 1.26983 20.1033L4.57326 23.3969C4.64359 23.3689 4.71847 23.3539 4.79422 23.3527H6.63791C7.41647 23.3504 8.16267 23.0419 8.71433 22.4941L13.0166 18.2047C13.7944 17.43 15.15 17.43 15.927 18.2047L20.2139 22.4778C20.7656 23.0254 21.5118 23.3336 22.2903 23.3355H23.7862C23.8664 23.3361 23.9457 23.352 24.0199 23.3825L27.3097 20.1024C27.713 19.7005 28.0329 19.2233 28.2512 18.6981C28.4695 18.1728 28.5818 17.6099 28.5818 17.0413C28.5818 16.4728 28.4695 15.9099 28.2512 15.3846C28.0329 14.8594 27.713 14.3822 27.3097 13.9802" fill="#727272"/>
</svg>
